<mxfile host="app.diagrams.net" agent="Mozilla/5.0 (Windows NT 10.0; Win64; x64) AppleWebKit/537.36 (KHTML, like Gecko) Chrome/130.0.0.0 Safari/537.36 Edg/130.0.0.0" version="24.8.0">
  <diagram name="Page-1" id="e_a8-oCc2V-RFmlxv8iu">
    <mxGraphModel dx="329" dy="185" grid="1" gridSize="11" guides="1" tooltips="1" connect="1" arrows="1" fold="1" page="1" pageScale="1" pageWidth="850" pageHeight="1100" math="0" shadow="0">
      <root>
        <mxCell id="0" />
        <mxCell id="1" parent="0" />
        <mxCell id="0afMoAUmQaLdDWUxxUY9-1" value="Hardware" style="text;html=1;align=center;verticalAlign=middle;whiteSpace=wrap;rounded=0;fontStyle=1" vertex="1" parent="1">
          <mxGeometry x="187" y="198" width="77" height="33" as="geometry" />
        </mxCell>
        <mxCell id="0afMoAUmQaLdDWUxxUY9-3" value="IoT" style="shape=singleArrow;whiteSpace=wrap;html=1;arrowWidth=0.4;arrowSize=0.4;" vertex="1" parent="1">
          <mxGeometry x="264" y="184.5" width="80" height="60" as="geometry" />
        </mxCell>
        <mxCell id="0afMoAUmQaLdDWUxxUY9-12" style="edgeStyle=orthogonalEdgeStyle;rounded=0;orthogonalLoop=1;jettySize=auto;html=1;exitX=1;exitY=0.5;exitDx=0;exitDy=0;" edge="1" parent="1" source="0afMoAUmQaLdDWUxxUY9-5">
          <mxGeometry relative="1" as="geometry">
            <mxPoint x="451" y="143" as="targetPoint" />
          </mxGeometry>
        </mxCell>
        <mxCell id="0afMoAUmQaLdDWUxxUY9-14" style="edgeStyle=orthogonalEdgeStyle;rounded=0;orthogonalLoop=1;jettySize=auto;html=1;exitX=1;exitY=0.75;exitDx=0;exitDy=0;" edge="1" parent="1" source="0afMoAUmQaLdDWUxxUY9-5">
          <mxGeometry relative="1" as="geometry">
            <mxPoint x="462" y="187" as="targetPoint" />
          </mxGeometry>
        </mxCell>
        <mxCell id="0afMoAUmQaLdDWUxxUY9-16" style="edgeStyle=orthogonalEdgeStyle;rounded=0;orthogonalLoop=1;jettySize=auto;html=1;exitX=0.25;exitY=0;exitDx=0;exitDy=0;" edge="1" parent="1" source="0afMoAUmQaLdDWUxxUY9-5">
          <mxGeometry relative="1" as="geometry">
            <mxPoint x="363" y="121" as="targetPoint" />
          </mxGeometry>
        </mxCell>
        <mxCell id="0afMoAUmQaLdDWUxxUY9-5" value="Bluetooth" style="text;html=1;align=center;verticalAlign=middle;whiteSpace=wrap;rounded=0;" vertex="1" parent="1">
          <mxGeometry x="374" y="154.5" width="62" height="30" as="geometry" />
        </mxCell>
        <mxCell id="0afMoAUmQaLdDWUxxUY9-6" value="WiFi" style="text;html=1;align=center;verticalAlign=middle;whiteSpace=wrap;rounded=0;" vertex="1" parent="1">
          <mxGeometry x="365" y="231" width="60" height="30" as="geometry" />
        </mxCell>
        <mxCell id="0afMoAUmQaLdDWUxxUY9-9" value="" style="endArrow=classic;startArrow=classic;html=1;rounded=0;entryX=0;entryY=0.5;entryDx=0;entryDy=0;" edge="1" parent="1" source="0afMoAUmQaLdDWUxxUY9-6">
          <mxGeometry width="50" height="50" relative="1" as="geometry">
            <mxPoint x="370" y="247.5" as="sourcePoint" />
            <mxPoint x="379.0000000000001" y="184.5" as="targetPoint" />
            <Array as="points">
              <mxPoint x="346" y="210.5" />
            </Array>
          </mxGeometry>
        </mxCell>
        <mxCell id="0afMoAUmQaLdDWUxxUY9-11" value="&lt;p style=&quot;line-height: 40%;&quot;&gt;&lt;font color=&quot;#ff0000&quot; style=&quot;font-size: 5px;&quot;&gt;&lt;i&gt;Ext connectivity issue&lt;/i&gt;&lt;/font&gt;&lt;/p&gt;" style="text;html=1;align=center;verticalAlign=middle;whiteSpace=wrap;rounded=0;" vertex="1" parent="1">
          <mxGeometry x="365.25" y="244.5" width="79.5" height="21.5" as="geometry" />
        </mxCell>
        <mxCell id="0afMoAUmQaLdDWUxxUY9-13" value="&lt;font style=&quot;font-size: 9px;&quot;&gt;Normal Bluetooth&lt;/font&gt;" style="text;html=1;align=center;verticalAlign=middle;whiteSpace=wrap;rounded=0;" vertex="1" parent="1">
          <mxGeometry x="425" y="110" width="56" height="30" as="geometry" />
        </mxCell>
        <mxCell id="0afMoAUmQaLdDWUxxUY9-15" value="&lt;font style=&quot;font-size: 9px;&quot;&gt;BLE&lt;/font&gt;" style="text;html=1;align=center;verticalAlign=middle;whiteSpace=wrap;rounded=0;" vertex="1" parent="1">
          <mxGeometry x="436" y="184.5" width="56" height="30" as="geometry" />
        </mxCell>
        <mxCell id="0afMoAUmQaLdDWUxxUY9-17" value="&lt;font style=&quot;font-size: 5px;&quot;&gt;ESP32 (Bulit in Bluetooth)&lt;/font&gt;" style="text;html=1;align=center;verticalAlign=middle;whiteSpace=wrap;rounded=0;" vertex="1" parent="1">
          <mxGeometry x="330" y="99" width="74" height="30" as="geometry" />
        </mxCell>
        <mxCell id="0afMoAUmQaLdDWUxxUY9-19" value="&lt;font color=&quot;#fe0101&quot; style=&quot;font-size: 8px;&quot;&gt;- Latency&lt;/font&gt;&lt;div style=&quot;font-size: 8px;&quot;&gt;&lt;font color=&quot;#fe0101&quot; style=&quot;font-size: 8px;&quot;&gt;- Wearable&lt;/font&gt;&lt;/div&gt;" style="text;html=1;align=left;verticalAlign=middle;whiteSpace=wrap;rounded=0;" vertex="1" parent="1">
          <mxGeometry x="198" y="225.5" width="66" height="19" as="geometry" />
        </mxCell>
      </root>
    </mxGraphModel>
  </diagram>
</mxfile>
